<svg width="345" height="148" viewBox="0 0 345 148" fill="none" xmlns="http://www.w3.org/2000/svg">
<path d="M230 0H340C342.761 0 345 2.23858 345 5V37H230V0Z" fill="#424242"/>
<rect x="115" width="115" height="37" fill="#424242"/>
<path d="M0 5C0 2.23858 2.23858 0 5 0H115V37H0V5Z" fill="#424242"/>
<rect y="37" width="115" height="37" fill="#424242"/>
<path d="M0 74H115V111H0V74Z" fill="#424242"/>
<path d="M0 111H115V148H5C2.23858 148 0 145.761 0 143V111Z" fill="#424242"/>
<rect x="0.5" y="0.5" width="344" height="147" rx="4.5" stroke="#C4C4C4"/>
<line x1="115.5" y1="-2.18557e-08" x2="115.5" y2="148" stroke="#C4C4C4"/>
<line x1="230.5" y1="-2.18557e-08" x2="230.5" y2="148" stroke="#C4C4C4"/>
<line y1="36.5" x2="345" y2="36.5" stroke="#C4C4C4"/>
<line y1="73.5" x2="345" y2="73.5" stroke="#C4C4C4"/>
<line y1="110.5" x2="345" y2="110.5" stroke="#C4C4C4"/>
<path d="M173.656 22.0938V18.3281C173.656 18.0573 173.612 17.8255 173.523 17.6328C173.435 17.4349 173.297 17.2812 173.109 17.1719C172.927 17.0625 172.69 17.0078 172.398 17.0078C172.148 17.0078 171.932 17.0521 171.75 17.1406C171.568 17.224 171.427 17.3464 171.328 17.5078C171.229 17.6641 171.18 17.849 171.18 18.0625H168.93C168.93 17.7031 169.013 17.362 169.18 17.0391C169.346 16.7161 169.589 16.4323 169.906 16.1875C170.224 15.9375 170.602 15.7422 171.039 15.6016C171.482 15.4609 171.977 15.3906 172.523 15.3906C173.18 15.3906 173.763 15.5 174.273 15.7188C174.784 15.9375 175.185 16.2656 175.477 16.7031C175.773 17.1406 175.922 17.6875 175.922 18.3438V21.9609C175.922 22.4245 175.951 22.8047 176.008 23.1016C176.065 23.3932 176.148 23.6484 176.258 23.8672V24H173.984C173.875 23.7708 173.792 23.4844 173.734 23.1406C173.682 22.7917 173.656 22.4427 173.656 22.0938ZM173.953 18.8516L173.969 20.125H172.711C172.414 20.125 172.156 20.1589 171.938 20.2266C171.719 20.2943 171.539 20.3906 171.398 20.5156C171.258 20.6354 171.154 20.776 171.086 20.9375C171.023 21.099 170.992 21.276 170.992 21.4688C170.992 21.6615 171.036 21.8359 171.125 21.9922C171.214 22.1432 171.341 22.263 171.508 22.3516C171.674 22.4349 171.87 22.4766 172.094 22.4766C172.432 22.4766 172.727 22.4089 172.977 22.2734C173.227 22.138 173.419 21.9714 173.555 21.7734C173.695 21.5755 173.768 21.388 173.773 21.2109L174.367 22.1641C174.284 22.3776 174.169 22.599 174.023 22.8281C173.883 23.0573 173.703 23.2734 173.484 23.4766C173.266 23.6745 173.003 23.8385 172.695 23.9688C172.388 24.0938 172.023 24.1562 171.602 24.1562C171.065 24.1562 170.578 24.0495 170.141 23.8359C169.708 23.6172 169.365 23.3177 169.109 22.9375C168.859 22.5521 168.734 22.1146 168.734 21.625C168.734 21.1823 168.818 20.7891 168.984 20.4453C169.151 20.1016 169.396 19.8125 169.719 19.5781C170.047 19.3385 170.456 19.1589 170.945 19.0391C171.435 18.9141 172.003 18.8516 172.648 18.8516H173.953Z" fill="white"/>
<path d="M54.2578 64.25V54.2734L54.5469 52.5469H56.5234V64.25H54.2578ZM48.9141 56.8594V56.6953C48.9141 56.0495 48.9844 55.4635 49.125 54.9375C49.2708 54.4062 49.4844 53.9531 49.7656 53.5781C50.0469 53.1979 50.3906 52.9062 50.7969 52.7031C51.2083 52.4948 51.6823 52.3906 52.2188 52.3906C52.7344 52.3906 53.1797 52.4948 53.5547 52.7031C53.9297 52.9115 54.2448 53.2057 54.5 53.5859C54.7604 53.9661 54.9688 54.4141 55.125 54.9297C55.2812 55.4453 55.401 56.0104 55.4844 56.625V56.9844C55.4062 57.5729 55.2865 58.1198 55.125 58.625C54.9688 59.1302 54.7604 59.5729 54.5 59.9531C54.2448 60.3333 53.9271 60.6302 53.5469 60.8438C53.1719 61.0521 52.724 61.1562 52.2031 61.1562C51.6771 61.1562 51.2083 61.0495 50.7969 60.8359C50.3906 60.6172 50.0469 60.3151 49.7656 59.9297C49.4844 59.5443 49.2708 59.0911 49.125 58.5703C48.9844 58.0443 48.9141 57.474 48.9141 56.8594ZM51.1641 56.6953V56.8594C51.1641 57.2083 51.1927 57.5365 51.25 57.8438C51.3073 58.1458 51.3984 58.4141 51.5234 58.6484C51.6536 58.8828 51.8203 59.0677 52.0234 59.2031C52.2266 59.3333 52.4766 59.3984 52.7734 59.3984C53.1849 59.3984 53.5156 59.3099 53.7656 59.1328C54.0208 58.9505 54.2083 58.7031 54.3281 58.3906C54.4531 58.0781 54.526 57.7214 54.5469 57.3203V56.2969C54.5312 55.9688 54.487 55.6745 54.4141 55.4141C54.3464 55.1484 54.2422 54.9219 54.1016 54.7344C53.9661 54.5469 53.7891 54.4036 53.5703 54.3047C53.3568 54.2005 53.0964 54.1484 52.7891 54.1484C52.4974 54.1484 52.2474 54.2135 52.0391 54.3438C51.8307 54.474 51.6615 54.6562 51.5312 54.8906C51.4062 55.1198 51.3125 55.388 51.25 55.6953C51.1927 56.0026 51.1641 56.3359 51.1641 56.6953ZM65.8594 54.3125V56.2812C65.8594 57.1354 65.7682 57.8724 65.5859 58.4922C65.4036 59.1068 65.1406 59.612 64.7969 60.0078C64.4583 60.3984 64.0547 60.6875 63.5859 60.875C63.1172 61.0625 62.5964 61.1562 62.0234 61.1562C61.5651 61.1562 61.138 61.099 60.7422 60.9844C60.3464 60.8646 59.9896 60.6797 59.6719 60.4297C59.3594 60.1797 59.0885 59.8646 58.8594 59.4844C58.6354 59.099 58.4635 58.6406 58.3438 58.1094C58.224 57.5781 58.1641 56.9688 58.1641 56.2812V54.3125C58.1641 53.4583 58.2552 52.7266 58.4375 52.1172C58.625 51.5026 58.888 51 59.2266 50.6094C59.5703 50.2188 59.9766 49.9323 60.4453 49.75C60.9141 49.5625 61.4349 49.4688 62.0078 49.4688C62.4661 49.4688 62.8906 49.5286 63.2812 49.6484C63.6771 49.763 64.0339 49.9427 64.3516 50.1875C64.6693 50.4323 64.9401 50.7474 65.1641 51.1328C65.388 51.513 65.5599 51.9688 65.6797 52.5C65.7995 53.026 65.8594 53.6302 65.8594 54.3125ZM63.6016 56.5781V54.0078C63.6016 53.5964 63.5781 53.237 63.5312 52.9297C63.4896 52.6224 63.4245 52.362 63.3359 52.1484C63.2474 51.9297 63.138 51.7526 63.0078 51.6172C62.8776 51.4818 62.7292 51.3828 62.5625 51.3203C62.3958 51.2578 62.2109 51.2266 62.0078 51.2266C61.7526 51.2266 61.526 51.276 61.3281 51.375C61.1354 51.474 60.9714 51.6328 60.8359 51.8516C60.7005 52.0651 60.5964 52.3516 60.5234 52.7109C60.4557 53.0651 60.4219 53.4974 60.4219 54.0078V56.5781C60.4219 56.9896 60.4427 57.3516 60.4844 57.6641C60.5312 57.9766 60.599 58.2448 60.6875 58.4688C60.7812 58.6875 60.8906 58.8672 61.0156 59.0078C61.1458 59.1432 61.2943 59.2422 61.4609 59.3047C61.6328 59.3672 61.8203 59.3984 62.0234 59.3984C62.2734 59.3984 62.4948 59.349 62.6875 59.25C62.8854 59.1458 63.0521 58.9844 63.1875 58.7656C63.3281 58.5417 63.4323 58.25 63.5 57.8906C63.5677 57.5312 63.6016 57.0938 63.6016 56.5781Z" fill="white"/>
<path d="M168.875 64.25V54.1719L169 52.5469H170.328V64.25H168.875ZM163.195 56.8672V56.7031C163.195 56.0573 163.271 55.4714 163.422 54.9453C163.573 54.4141 163.794 53.9583 164.086 53.5781C164.378 53.1979 164.729 52.9062 165.141 52.7031C165.557 52.4948 166.031 52.3906 166.562 52.3906C167.094 52.3906 167.56 52.4844 167.961 52.6719C168.367 52.8542 168.711 53.1224 168.992 53.4766C169.279 53.8255 169.505 54.2474 169.672 54.7422C169.839 55.237 169.953 55.7969 170.016 56.4219V57.1406C169.958 57.7604 169.846 58.3177 169.68 58.8125C169.513 59.3073 169.286 59.7292 169 60.0781C168.719 60.4271 168.372 60.6953 167.961 60.8828C167.555 61.0651 167.083 61.1562 166.547 61.1562C166.026 61.1562 165.557 61.0495 165.141 60.8359C164.729 60.6224 164.378 60.3229 164.086 59.9375C163.799 59.5521 163.578 59.099 163.422 58.5781C163.271 58.0521 163.195 57.4818 163.195 56.8672ZM164.648 56.7031V56.8672C164.648 57.2891 164.693 57.6875 164.781 58.0625C164.87 58.4323 165.005 58.7604 165.188 59.0469C165.375 59.3333 165.609 59.5599 165.891 59.7266C166.177 59.888 166.516 59.9688 166.906 59.9688C167.385 59.9688 167.784 59.8646 168.102 59.6562C168.424 59.4479 168.682 59.1745 168.875 58.8359C169.068 58.4922 169.216 58.125 169.32 57.7344V55.8516C169.263 55.5651 169.172 55.2865 169.047 55.0156C168.927 54.7448 168.771 54.5026 168.578 54.2891C168.385 54.0703 168.151 53.8984 167.875 53.7734C167.604 53.6432 167.286 53.5781 166.922 53.5781C166.526 53.5781 166.185 53.6615 165.898 53.8281C165.612 53.9948 165.375 54.224 165.188 54.5156C165.005 54.8021 164.87 55.1328 164.781 55.5078C164.693 55.8828 164.648 56.2812 164.648 56.7031ZM177.242 49.5625V61H175.797V51.3672L172.883 52.4297V51.125L177.016 49.5625H177.242Z" fill="white"/>
<path d="M287.281 56.4141H289V57.2578H287.398C286.966 57.2578 286.602 57.3073 286.305 57.4062C286.013 57.5 285.792 57.6484 285.641 57.8516C285.49 58.0495 285.414 58.3073 285.414 58.625C285.414 58.8073 285.458 58.9818 285.547 59.1484C285.641 59.3099 285.776 59.4531 285.953 59.5781C286.135 59.7031 286.354 59.8021 286.609 59.875C286.87 59.9479 287.164 59.9844 287.492 59.9844C287.914 59.9844 288.281 59.9141 288.594 59.7734C288.906 59.6328 289.148 59.4505 289.32 59.2266C289.497 58.9974 289.586 58.7552 289.586 58.5H291.023C291.023 58.9583 290.922 59.3568 290.719 59.6953C290.516 60.0286 290.245 60.3047 289.906 60.5234C289.568 60.737 289.188 60.8958 288.766 61C288.349 61.1042 287.924 61.1562 287.492 61.1562C286.982 61.1562 286.51 61.099 286.078 60.9844C285.651 60.8698 285.279 60.7031 284.961 60.4844C284.643 60.2656 284.396 60 284.219 59.6875C284.047 59.3698 283.961 59.013 283.961 58.6172C283.961 58.263 284.034 57.9505 284.18 57.6797C284.331 57.4036 284.547 57.1719 284.828 56.9844C285.115 56.7969 285.464 56.6562 285.875 56.5625C286.286 56.4635 286.755 56.4141 287.281 56.4141ZM289 56.9609H287.281C286.802 56.9609 286.367 56.9062 285.977 56.7969C285.586 56.6875 285.25 56.5365 284.969 56.3438C284.693 56.1458 284.479 55.9193 284.328 55.6641C284.182 55.4089 284.109 55.138 284.109 54.8516C284.109 54.4505 284.188 54.099 284.344 53.7969C284.505 53.4896 284.734 53.2344 285.031 53.0312C285.328 52.8229 285.685 52.6667 286.102 52.5625C286.518 52.4531 286.982 52.3984 287.492 52.3984C287.956 52.3984 288.391 52.4557 288.797 52.5703C289.203 52.6849 289.562 52.8516 289.875 53.0703C290.193 53.2891 290.44 53.5521 290.617 53.8594C290.794 54.1667 290.883 54.513 290.883 54.8984H289.445C289.445 54.6484 289.357 54.4245 289.18 54.2266C289.008 54.0234 288.773 53.8646 288.477 53.75C288.185 53.6302 287.857 53.5703 287.492 53.5703C287.049 53.5703 286.685 53.6328 286.398 53.7578C286.112 53.8776 285.898 54.0365 285.758 54.2344C285.622 54.4271 285.555 54.6328 285.555 54.8516C285.555 55.0339 285.589 55.2031 285.656 55.3594C285.729 55.5104 285.839 55.6432 285.984 55.7578C286.13 55.8672 286.32 55.9531 286.555 56.0156C286.789 56.0781 287.07 56.1094 287.398 56.1094H289V56.9609Z" fill="white"/>
<path d="M284.875 101.25V91.1719L285 89.5469H286.328V101.25H284.875ZM279.195 93.8672V93.7031C279.195 93.0573 279.271 92.4714 279.422 91.9453C279.573 91.4141 279.794 90.9583 280.086 90.5781C280.378 90.1979 280.729 89.9062 281.141 89.7031C281.557 89.4948 282.031 89.3906 282.562 89.3906C283.094 89.3906 283.56 89.4844 283.961 89.6719C284.367 89.8542 284.711 90.1224 284.992 90.4766C285.279 90.8255 285.505 91.2474 285.672 91.7422C285.839 92.237 285.953 92.7969 286.016 93.4219V94.1406C285.958 94.7604 285.846 95.3177 285.68 95.8125C285.513 96.3073 285.286 96.7292 285 97.0781C284.719 97.4271 284.372 97.6953 283.961 97.8828C283.555 98.0651 283.083 98.1562 282.547 98.1562C282.026 98.1562 281.557 98.0495 281.141 97.8359C280.729 97.6224 280.378 97.3229 280.086 96.9375C279.799 96.5521 279.578 96.099 279.422 95.5781C279.271 95.0521 279.195 94.4818 279.195 93.8672ZM280.648 93.7031V93.8672C280.648 94.2891 280.693 94.6875 280.781 95.0625C280.87 95.4323 281.005 95.7604 281.188 96.0469C281.375 96.3333 281.609 96.5599 281.891 96.7266C282.177 96.888 282.516 96.9688 282.906 96.9688C283.385 96.9688 283.784 96.8646 284.102 96.6562C284.424 96.4479 284.682 96.1745 284.875 95.8359C285.068 95.4922 285.216 95.125 285.32 94.7344V92.8516C285.263 92.5651 285.172 92.2865 285.047 92.0156C284.927 91.7448 284.771 91.5026 284.578 91.2891C284.385 91.0703 284.151 90.8984 283.875 90.7734C283.604 90.6432 283.286 90.5781 282.922 90.5781C282.526 90.5781 282.185 90.6615 281.898 90.8281C281.612 90.9948 281.375 91.224 281.188 91.5156C281.005 91.8021 280.87 92.1328 280.781 92.5078C280.693 92.8828 280.648 93.2812 280.648 93.7031ZM295.945 96.8125V98H288.5V96.9609L292.227 92.8125C292.685 92.3021 293.039 91.8698 293.289 91.5156C293.544 91.1562 293.721 90.8359 293.82 90.5547C293.924 90.2682 293.977 89.9766 293.977 89.6797C293.977 89.3047 293.898 88.9661 293.742 88.6641C293.591 88.3568 293.367 88.112 293.07 87.9297C292.773 87.7474 292.414 87.6562 291.992 87.6562C291.487 87.6562 291.065 87.7552 290.727 87.9531C290.393 88.1458 290.143 88.4167 289.977 88.7656C289.81 89.1146 289.727 89.5156 289.727 89.9688H288.281C288.281 89.3281 288.422 88.7422 288.703 88.2109C288.984 87.6797 289.401 87.2578 289.953 86.9453C290.505 86.6276 291.185 86.4688 291.992 86.4688C292.711 86.4688 293.326 86.5964 293.836 86.8516C294.346 87.1016 294.737 87.4557 295.008 87.9141C295.284 88.3672 295.422 88.8984 295.422 89.5078C295.422 89.8411 295.365 90.1797 295.25 90.5234C295.141 90.862 294.987 91.2005 294.789 91.5391C294.596 91.8776 294.37 92.2109 294.109 92.5391C293.854 92.8672 293.581 93.1901 293.289 93.5078L290.242 96.8125H295.945Z" fill="white"/>
<path d="M284.875 138.25V128.172L285 126.547H286.328V138.25H284.875ZM279.195 130.867V130.703C279.195 130.057 279.271 129.471 279.422 128.945C279.573 128.414 279.794 127.958 280.086 127.578C280.378 127.198 280.729 126.906 281.141 126.703C281.557 126.495 282.031 126.391 282.562 126.391C283.094 126.391 283.56 126.484 283.961 126.672C284.367 126.854 284.711 127.122 284.992 127.477C285.279 127.826 285.505 128.247 285.672 128.742C285.839 129.237 285.953 129.797 286.016 130.422V131.141C285.958 131.76 285.846 132.318 285.68 132.812C285.513 133.307 285.286 133.729 285 134.078C284.719 134.427 284.372 134.695 283.961 134.883C283.555 135.065 283.083 135.156 282.547 135.156C282.026 135.156 281.557 135.049 281.141 134.836C280.729 134.622 280.378 134.323 280.086 133.938C279.799 133.552 279.578 133.099 279.422 132.578C279.271 132.052 279.195 131.482 279.195 130.867ZM280.648 130.703V130.867C280.648 131.289 280.693 131.688 280.781 132.062C280.87 132.432 281.005 132.76 281.188 133.047C281.375 133.333 281.609 133.56 281.891 133.727C282.177 133.888 282.516 133.969 282.906 133.969C283.385 133.969 283.784 133.865 284.102 133.656C284.424 133.448 284.682 133.174 284.875 132.836C285.068 132.492 285.216 132.125 285.32 131.734V129.852C285.263 129.565 285.172 129.286 285.047 129.016C284.927 128.745 284.771 128.503 284.578 128.289C284.385 128.07 284.151 127.898 283.875 127.773C283.604 127.643 283.286 127.578 282.922 127.578C282.526 127.578 282.185 127.661 281.898 127.828C281.612 127.995 281.375 128.224 281.188 128.516C281.005 128.802 280.87 129.133 280.781 129.508C280.693 129.883 280.648 130.281 280.648 130.703ZM295.945 133.812V135H288.5V133.961L292.227 129.812C292.685 129.302 293.039 128.87 293.289 128.516C293.544 128.156 293.721 127.836 293.82 127.555C293.924 127.268 293.977 126.977 293.977 126.68C293.977 126.305 293.898 125.966 293.742 125.664C293.591 125.357 293.367 125.112 293.07 124.93C292.773 124.747 292.414 124.656 291.992 124.656C291.487 124.656 291.065 124.755 290.727 124.953C290.393 125.146 290.143 125.417 289.977 125.766C289.81 126.115 289.727 126.516 289.727 126.969H288.281C288.281 126.328 288.422 125.742 288.703 125.211C288.984 124.68 289.401 124.258 289.953 123.945C290.505 123.628 291.185 123.469 291.992 123.469C292.711 123.469 293.326 123.596 293.836 123.852C294.346 124.102 294.737 124.456 295.008 124.914C295.284 125.367 295.422 125.898 295.422 126.508C295.422 126.841 295.365 127.18 295.25 127.523C295.141 127.862 294.987 128.201 294.789 128.539C294.596 128.878 294.37 129.211 294.109 129.539C293.854 129.867 293.581 130.19 293.289 130.508L290.242 133.812H295.945Z" fill="white"/>
<path d="M168.875 138.25V128.172L169 126.547H170.328V138.25H168.875ZM163.195 130.867V130.703C163.195 130.057 163.271 129.471 163.422 128.945C163.573 128.414 163.794 127.958 164.086 127.578C164.378 127.198 164.729 126.906 165.141 126.703C165.557 126.495 166.031 126.391 166.562 126.391C167.094 126.391 167.56 126.484 167.961 126.672C168.367 126.854 168.711 127.122 168.992 127.477C169.279 127.826 169.505 128.247 169.672 128.742C169.839 129.237 169.953 129.797 170.016 130.422V131.141C169.958 131.76 169.846 132.318 169.68 132.812C169.513 133.307 169.286 133.729 169 134.078C168.719 134.427 168.372 134.695 167.961 134.883C167.555 135.065 167.083 135.156 166.547 135.156C166.026 135.156 165.557 135.049 165.141 134.836C164.729 134.622 164.378 134.323 164.086 133.938C163.799 133.552 163.578 133.099 163.422 132.578C163.271 132.052 163.195 131.482 163.195 130.867ZM164.648 130.703V130.867C164.648 131.289 164.693 131.688 164.781 132.062C164.87 132.432 165.005 132.76 165.188 133.047C165.375 133.333 165.609 133.56 165.891 133.727C166.177 133.888 166.516 133.969 166.906 133.969C167.385 133.969 167.784 133.865 168.102 133.656C168.424 133.448 168.682 133.174 168.875 132.836C169.068 132.492 169.216 132.125 169.32 131.734V129.852C169.263 129.565 169.172 129.286 169.047 129.016C168.927 128.745 168.771 128.503 168.578 128.289C168.385 128.07 168.151 127.898 167.875 127.773C167.604 127.643 167.286 127.578 166.922 127.578C166.526 127.578 166.185 127.661 165.898 127.828C165.612 127.995 165.375 128.224 165.188 128.516C165.005 128.802 164.87 129.133 164.781 129.508C164.693 129.883 164.648 130.281 164.648 130.703ZM179.945 133.812V135H172.5V133.961L176.227 129.812C176.685 129.302 177.039 128.87 177.289 128.516C177.544 128.156 177.721 127.836 177.82 127.555C177.924 127.268 177.977 126.977 177.977 126.68C177.977 126.305 177.898 125.966 177.742 125.664C177.591 125.357 177.367 125.112 177.07 124.93C176.773 124.747 176.414 124.656 175.992 124.656C175.487 124.656 175.065 124.755 174.727 124.953C174.393 125.146 174.143 125.417 173.977 125.766C173.81 126.115 173.727 126.516 173.727 126.969H172.281C172.281 126.328 172.422 125.742 172.703 125.211C172.984 124.68 173.401 124.258 173.953 123.945C174.505 123.628 175.185 123.469 175.992 123.469C176.711 123.469 177.326 123.596 177.836 123.852C178.346 124.102 178.737 124.456 179.008 124.914C179.284 125.367 179.422 125.898 179.422 126.508C179.422 126.841 179.365 127.18 179.25 127.523C179.141 127.862 178.987 128.201 178.789 128.539C178.596 128.878 178.37 129.211 178.109 129.539C177.854 129.867 177.581 130.19 177.289 130.508L174.242 133.812H179.945Z" fill="white"/>
<path d="M171.281 93.4141H173V94.2578H171.398C170.966 94.2578 170.602 94.3073 170.305 94.4062C170.013 94.5 169.792 94.6484 169.641 94.8516C169.49 95.0495 169.414 95.3073 169.414 95.625C169.414 95.8073 169.458 95.9818 169.547 96.1484C169.641 96.3099 169.776 96.4531 169.953 96.5781C170.135 96.7031 170.354 96.8021 170.609 96.875C170.87 96.9479 171.164 96.9844 171.492 96.9844C171.914 96.9844 172.281 96.9141 172.594 96.7734C172.906 96.6328 173.148 96.4505 173.32 96.2266C173.497 95.9974 173.586 95.7552 173.586 95.5H175.023C175.023 95.9583 174.922 96.3568 174.719 96.6953C174.516 97.0286 174.245 97.3047 173.906 97.5234C173.568 97.737 173.188 97.8958 172.766 98C172.349 98.1042 171.924 98.1562 171.492 98.1562C170.982 98.1562 170.51 98.099 170.078 97.9844C169.651 97.8698 169.279 97.7031 168.961 97.4844C168.643 97.2656 168.396 97 168.219 96.6875C168.047 96.3698 167.961 96.013 167.961 95.6172C167.961 95.263 168.034 94.9505 168.18 94.6797C168.331 94.4036 168.547 94.1719 168.828 93.9844C169.115 93.7969 169.464 93.6562 169.875 93.5625C170.286 93.4635 170.755 93.4141 171.281 93.4141ZM173 93.9609H171.281C170.802 93.9609 170.367 93.9062 169.977 93.7969C169.586 93.6875 169.25 93.5365 168.969 93.3438C168.693 93.1458 168.479 92.9193 168.328 92.6641C168.182 92.4089 168.109 92.138 168.109 91.8516C168.109 91.4505 168.188 91.099 168.344 90.7969C168.505 90.4896 168.734 90.2344 169.031 90.0312C169.328 89.8229 169.685 89.6667 170.102 89.5625C170.518 89.4531 170.982 89.3984 171.492 89.3984C171.956 89.3984 172.391 89.4557 172.797 89.5703C173.203 89.6849 173.562 89.8516 173.875 90.0703C174.193 90.2891 174.44 90.5521 174.617 90.8594C174.794 91.1667 174.883 91.513 174.883 91.8984H173.445C173.445 91.6484 173.357 91.4245 173.18 91.2266C173.008 91.0234 172.773 90.8646 172.477 90.75C172.185 90.6302 171.857 90.5703 171.492 90.5703C171.049 90.5703 170.685 90.6328 170.398 90.7578C170.112 90.8776 169.898 91.0365 169.758 91.2344C169.622 91.4271 169.555 91.6328 169.555 91.8516C169.555 92.0339 169.589 92.2031 169.656 92.3594C169.729 92.5104 169.839 92.6432 169.984 92.7578C170.13 92.8672 170.32 92.9531 170.555 93.0156C170.789 93.0781 171.07 93.1094 171.398 93.1094H173V93.9609Z" fill="white"/>
<path d="M54.2578 101.25V91.2734L54.5469 89.5469H56.5234V101.25H54.2578ZM48.9141 93.8594V93.6953C48.9141 93.0495 48.9844 92.4635 49.125 91.9375C49.2708 91.4062 49.4844 90.9531 49.7656 90.5781C50.0469 90.1979 50.3906 89.9062 50.7969 89.7031C51.2083 89.4948 51.6823 89.3906 52.2188 89.3906C52.7344 89.3906 53.1797 89.4948 53.5547 89.7031C53.9297 89.9115 54.2448 90.2057 54.5 90.5859C54.7604 90.9661 54.9688 91.4141 55.125 91.9297C55.2812 92.4453 55.401 93.0104 55.4844 93.625V93.9844C55.4062 94.5729 55.2865 95.1198 55.125 95.625C54.9688 96.1302 54.7604 96.5729 54.5 96.9531C54.2448 97.3333 53.9271 97.6302 53.5469 97.8438C53.1719 98.0521 52.724 98.1562 52.2031 98.1562C51.6771 98.1562 51.2083 98.0495 50.7969 97.8359C50.3906 97.6172 50.0469 97.3151 49.7656 96.9297C49.4844 96.5443 49.2708 96.0911 49.125 95.5703C48.9844 95.0443 48.9141 94.474 48.9141 93.8594ZM51.1641 93.6953V93.8594C51.1641 94.2083 51.1927 94.5365 51.25 94.8438C51.3073 95.1458 51.3984 95.4141 51.5234 95.6484C51.6536 95.8828 51.8203 96.0677 52.0234 96.2031C52.2266 96.3333 52.4766 96.3984 52.7734 96.3984C53.1849 96.3984 53.5156 96.3099 53.7656 96.1328C54.0208 95.9505 54.2083 95.7031 54.3281 95.3906C54.4531 95.0781 54.526 94.7214 54.5469 94.3203V93.2969C54.5312 92.9688 54.487 92.6745 54.4141 92.4141C54.3464 92.1484 54.2422 91.9219 54.1016 91.7344C53.9661 91.5469 53.7891 91.4036 53.5703 91.3047C53.3568 91.2005 53.0964 91.1484 52.7891 91.1484C52.4974 91.1484 52.2474 91.2135 52.0391 91.3438C51.8307 91.474 51.6615 91.6562 51.5312 91.8906C51.4062 92.1198 51.3125 92.388 51.25 92.6953C51.1927 93.0026 51.1641 93.3359 51.1641 93.6953ZM63.6875 86.6016V98H61.4375V89.1953L58.7344 90.0547V88.2812L63.4453 86.6016H63.6875Z" fill="white"/>
<path d="M54.2578 138.25V128.273L54.5469 126.547H56.5234V138.25H54.2578ZM48.9141 130.859V130.695C48.9141 130.049 48.9844 129.464 49.125 128.938C49.2708 128.406 49.4844 127.953 49.7656 127.578C50.0469 127.198 50.3906 126.906 50.7969 126.703C51.2083 126.495 51.6823 126.391 52.2188 126.391C52.7344 126.391 53.1797 126.495 53.5547 126.703C53.9297 126.911 54.2448 127.206 54.5 127.586C54.7604 127.966 54.9688 128.414 55.125 128.93C55.2812 129.445 55.401 130.01 55.4844 130.625V130.984C55.4062 131.573 55.2865 132.12 55.125 132.625C54.9688 133.13 54.7604 133.573 54.5 133.953C54.2448 134.333 53.9271 134.63 53.5469 134.844C53.1719 135.052 52.724 135.156 52.2031 135.156C51.6771 135.156 51.2083 135.049 50.7969 134.836C50.3906 134.617 50.0469 134.315 49.7656 133.93C49.4844 133.544 49.2708 133.091 49.125 132.57C48.9844 132.044 48.9141 131.474 48.9141 130.859ZM51.1641 130.695V130.859C51.1641 131.208 51.1927 131.536 51.25 131.844C51.3073 132.146 51.3984 132.414 51.5234 132.648C51.6536 132.883 51.8203 133.068 52.0234 133.203C52.2266 133.333 52.4766 133.398 52.7734 133.398C53.1849 133.398 53.5156 133.31 53.7656 133.133C54.0208 132.951 54.2083 132.703 54.3281 132.391C54.4531 132.078 54.526 131.721 54.5469 131.32V130.297C54.5312 129.969 54.487 129.674 54.4141 129.414C54.3464 129.148 54.2422 128.922 54.1016 128.734C53.9661 128.547 53.7891 128.404 53.5703 128.305C53.3568 128.201 53.0964 128.148 52.7891 128.148C52.4974 128.148 52.2474 128.214 52.0391 128.344C51.8307 128.474 51.6615 128.656 51.5312 128.891C51.4062 129.12 51.3125 129.388 51.25 129.695C51.1927 130.003 51.1641 130.336 51.1641 130.695ZM65.9844 133.242V135H58.2031V133.5L61.8828 129.555C62.2526 129.143 62.5443 128.781 62.7578 128.469C62.9714 128.151 63.125 127.867 63.2188 127.617C63.3177 127.362 63.3672 127.12 63.3672 126.891C63.3672 126.547 63.3099 126.253 63.1953 126.008C63.0807 125.758 62.9115 125.565 62.6875 125.43C62.4688 125.294 62.1979 125.227 61.875 125.227C61.5312 125.227 61.2344 125.31 60.9844 125.477C60.7396 125.643 60.5521 125.875 60.4219 126.172C60.2969 126.469 60.2344 126.805 60.2344 127.18H57.9766C57.9766 126.503 58.138 125.883 58.4609 125.32C58.7839 124.753 59.2396 124.302 59.8281 123.969C60.4167 123.63 61.1146 123.461 61.9219 123.461C62.7188 123.461 63.3906 123.591 63.9375 123.852C64.4896 124.107 64.9062 124.477 65.1875 124.961C65.474 125.44 65.6172 126.013 65.6172 126.68C65.6172 127.055 65.5573 127.422 65.4375 127.781C65.3177 128.135 65.1458 128.49 64.9219 128.844C64.7031 129.193 64.4375 129.547 64.125 129.906C63.8125 130.266 63.4661 130.638 63.0859 131.023L61.1094 133.242H65.9844Z" fill="white"/>
<path d="M284.875 12H287.125V22.0625L286.898 24H284.875V12ZM292.477 19.6875V19.8516C292.477 20.4818 292.409 21.0599 292.273 21.5859C292.143 22.112 291.94 22.5677 291.664 22.9531C291.388 23.3333 291.044 23.6302 290.633 23.8438C290.227 24.0521 289.747 24.1562 289.195 24.1562C288.68 24.1562 288.232 24.0521 287.852 23.8438C287.477 23.6354 287.161 23.3411 286.906 22.9609C286.651 22.5807 286.445 22.1354 286.289 21.625C286.133 21.1146 286.016 20.5573 285.938 19.9531V19.5938C286.016 18.9896 286.133 18.4323 286.289 17.9219C286.445 17.4115 286.651 16.9661 286.906 16.5859C287.161 16.2057 287.477 15.9115 287.852 15.7031C288.227 15.4948 288.669 15.3906 289.18 15.3906C289.737 15.3906 290.221 15.4974 290.633 15.7109C291.049 15.9193 291.393 16.2161 291.664 16.6016C291.94 16.9818 292.143 17.4349 292.273 17.9609C292.409 18.4818 292.477 19.0573 292.477 19.6875ZM290.227 19.8516V19.6875C290.227 19.3438 290.201 19.0208 290.148 18.7188C290.102 18.4115 290.018 18.1432 289.898 17.9141C289.779 17.6797 289.615 17.4948 289.406 17.3594C289.203 17.224 288.94 17.1562 288.617 17.1562C288.31 17.1562 288.049 17.2083 287.836 17.3125C287.622 17.4167 287.445 17.5625 287.305 17.75C287.169 17.9375 287.068 18.1615 287 18.4219C286.932 18.6771 286.891 18.9583 286.875 19.2656V20.2891C286.891 20.7005 286.958 21.0651 287.078 21.3828C287.203 21.6953 287.391 21.9427 287.641 22.125C287.896 22.3021 288.227 22.3906 288.633 22.3906C288.951 22.3906 289.214 22.3281 289.422 22.2031C289.63 22.0781 289.792 21.901 289.906 21.6719C290.026 21.4427 290.109 21.1745 290.156 20.8672C290.203 20.5547 290.227 20.2161 290.227 19.8516Z" fill="white"/>
</svg>
