<svg xmlns="http://www.w3.org/2000/svg" viewBox="0 0 512 512">
  <defs>
    <style>
      .primary {
        fill: var(--primary, hsl(38 84% 50%));
      }
      .secondary {
        fill: var(--state-bg, hsl(38 84% 75%));
      }
    </style>
  </defs>
  <circle class="secondary" cx="236.37" cy="236.37" r="232.69"/>
  <path class="secondary" d="M414.89,426.07l10.99,77.46c1.15,8.07,11.02,11.37,16.78,5.6l66.47-66.47c5.76-5.76,2.47-15.64-5.6-16.78l-77.46-10.99c-6.52-.92-12.1,4.66-11.18,11.18Z"/>

  <path class="primary" d="M281.62,119.47c-33.62,4.99-72.72,15.46-72.72,39.99,0,44.1,88.85,32.08,90.15,57.75,.78,15.37-17.89,24.63-14.71,54.05,4.16,38.48,108.91,39.85,173.54,36.48,7.24-22.5,11.17-46.48,11.17-71.38,0-44.58-12.54-86.22-34.28-121.61-52.87-4.1-106.57-2.2-153.16,4.71Z"/>
  <path class="primary" d="M172.04,284.78c-15.5-10.16-97.69-26.79-167.14-24.41,3.78,36.89,16.18,71.22,35.15,100.96,45.47,2.49,120.79-1.05,141.59-31.89,7.82-11.59,10.62-31.4-9.6-44.66Z"/>
  <path class="primary" d="M236.37,469.06c34.33,0,66.92-7.44,96.26-20.79-47.34-33.91-151.67-41.32-207.83-7.66,33.13,18.13,71.14,28.45,111.57,28.45Z"/>
  <path class="primary" d="M315.91,17.63c-24.82-9.03-51.6-13.96-79.54-13.96-24.55,0-48.21,3.81-70.43,10.86,45.64,44.39,120.02,31.66,149.97,3.09Z"/>
</svg>
